# xmcd
#
# Track frame offsets:
#	150
#	17701
#	30873
#	47234
#	59564
#	76587
#	88644
#	105358
#	117835
#	133770
#	148633
#	158790
#	176394
#	188411
#	205410
#	219592
#
# Disc length: 3167 seconds
#
# Revision: 0
# Processed by: cddbd v1.5.2PL0 Copyright (c) Steve Scherf et al.
# Submitted via: EasyCDDAExtractor 10.0.2.1
#
DISCID=cc0c5d10
DTITLE=Various Artist - Nashville Gospel Christmas
DYEAR=2001
DGENRE=Gospel
TTITLE0=Gary R. Smith - White Christmas
TTITLE1=Gayla Earlene - All Through The Year
TTITLE2=Judy DeRamus - On A Snowy Christmas Night
TTITLE3=Sharon Marsh - This Is What Christmas Is For
TTITLE4=Gene Crain - Blue Christmas
TTITLE5=Morgan and Morgan - Silver Bells
TTITLE6=Shelia Lewis - The Box
TTITLE7=Gene Farington - Have A Country Christmas
TTITLE8=Micki Farington - I'll Be Home For Christmas
TTITLE9=Richard Kiser - Mary Did You Know
TTITLE10=Marlissa Hill - Santa Claus Jr.
TTITLE11=Shirley Hayes and Mary Faye Jackson - Mary Don't Worry
TTITLE12=Jim Wilkerson - Jesus  Won't Come Down Your Chimney
TTITLE13=Fred Atkins - Holy Christmas Diety
TTITLE14=Bill Townsend - Santa Got Stuck In The Chimney
TTITLE15=Pat Cole - Blessed Sacred Night
EXTD=
EXTT0=
EXTT1=
EXTT2=
EXTT3=
EXTT4=
EXTT5=
EXTT6=
EXTT7=
EXTT8=
EXTT9=
EXTT10=
EXTT11=
EXTT12=
EXTT13=
EXTT14=
EXTT15=
PLAYORDER=
